# xmcd CD database file
#
# Track frame offsets:
#	150
#	12374
#	23748
#	36528
#	47358
#	59780
#	70112
#	82658
#	94417
#	107513
#	118441
#	129400
#	139416
#	149407
#	164853
#	175394
#	188055
#	202304
#	213512
#	221149
#
# Disc length: 3067 seconds
#
# Revision: 0
# Processed by: cddbd v1.5.2PL0 Copyright (c) Steve Scherf et al.
# Submitted via: CDex 1.51
#
DISCID=400bf914
DTITLE=Various Artist - Country Legends - Volume 1
DYEAR=2004
DGENRE=Country
TTITLE0=Johnny Cash - I Walk The Line
TTITLE1=Kenny Rogers - Me AnD Bobby McGee
TTITLE2=Billie Jo Spears - Dallas
TTITLE3=Don Williams - Always Something There To Remind Me
TTITLE4=Lynn Anderson - Stand By Your Man
TTITLE5=Willie Nelson - Blame It On The Times
TTITLE6=Hank Williams - Hony Tonkin
TTITLE7=Dolly Parton - Letter To Heaven
TTITLE8=Hank Williams - Wedding Bells
TTITLE9=Donna Fargo - All That Keeps Me Alive
TTITLE10=Conway Twitty - Big Town
TTITLE11=Rita Remington - Love Me "Till The Morning Comes"
TTITLE12=Mickey Gilley - I Miss You So
TTITLE13=Ann Murray - There Goes My Everything
TTITLE14=Waylon Jennings - Burning Memories
TTITLE15=Charlie Pride - Crystal Chandeliers
TTITLE16=Frankie Laine - Jezebel
TTITLE17=Jeannie C Riley - Box Of Memories
TTITLE18=Jim Reeves - Bimbo
TTITLE19=Jerry Lee Lewis - Jambalaya
EXTD=YEAR: 2004
EXTT0=
EXTT1=
EXTT2=
EXTT3=
EXTT4=
EXTT5=
EXTT6=
EXTT7=
EXTT8=
EXTT9=
EXTT10=
EXTT11=
EXTT12=
EXTT13=
EXTT14=
EXTT15=
EXTT16=
EXTT17=
EXTT18=
EXTT19=
PLAYORDER=
